<?xml version="1.0" encoding="iso-8859-1"?>
<!-- Generator: Adobe Illustrator 19.0.0, SVG Export Plug-In . SVG Version: 6.00 Build 0)  -->
<svg version="1.1" id="Layer_1" xmlns="http://www.w3.org/2000/svg" xmlns:xlink="http://www.w3.org/1999/xlink" x="0px" y="0px"
	 viewBox="0 0 298.976 298.976" style="enable-background:new 0 0 298.976 298.976;" xml:space="preserve">
<g>
	<g>
		<g>
			<path d="M0,55.86v238.441h298.976V55.86H0z M289.826,285.151H9.15V65.01h280.676V285.151z"/>
			<rect x="88.718" y="42.071" width="18.698" height="9.15"/>
			<rect x="191.56" y="42.071" width="18.698" height="9.15"/>
			<polygon points="102.642,13.825 196.333,13.825 196.333,37.297 205.483,37.297 205.483,4.675 93.492,4.675 93.492,37.297 
				102.642,37.297 			"/>
			<polygon points="60.77,219.606 60.77,230.851 79.369,249.449 97.967,230.851 97.967,219.606 88.817,219.606 88.817,227.061 
				79.369,236.509 69.92,227.061 69.92,219.606 			"/>
			<path d="M116.666,177.635H42.072v37.197h74.594V177.635z M107.516,205.683H51.222v-18.897h56.294V205.683z"/>
			<rect x="60.67" y="191.659" width="37.397" height="9.15"/>
			<polygon points="97.967,158.737 201.008,158.737 201.008,172.861 210.158,172.861 210.158,121.44 201.008,121.44 
				201.008,149.587 97.967,149.587 97.967,121.44 88.817,121.44 88.817,172.861 97.967,172.861 			"/>
			<polygon points="60.77,172.861 69.92,172.861 69.92,121.44 60.77,121.44 60.77,149.587 13.924,149.587 13.924,158.737 
				60.77,158.737 			"/>
			<rect x="74.694" y="163.611" width="9.349" height="9.15"/>
			<rect x="74.694" y="144.913" width="9.349" height="9.15"/>
			<rect x="74.694" y="126.214" width="9.349" height="9.15"/>
			<polygon points="201.008,219.606 201.008,230.851 219.607,249.449 238.206,230.851 238.206,219.606 229.056,219.606 
				229.056,227.061 219.607,236.509 210.158,227.061 210.158,219.606 			"/>
			<path d="M256.905,177.635H182.31v37.197h74.594V177.635z M247.755,205.683H191.46v-18.897h56.294V205.683z"/>
			<rect x="200.908" y="191.659" width="37.397" height="9.15"/>
			<polygon points="238.206,158.737 285.052,158.737 285.052,149.587 238.206,149.587 238.206,121.44 229.056,121.44 
				229.056,172.861 238.206,172.861 			"/>
			<rect x="214.932" y="163.611" width="9.349" height="9.15"/>
			<rect x="214.932" y="144.913" width="9.349" height="9.15"/>
			<rect x="214.932" y="126.214" width="9.349" height="9.15"/>
			<rect x="135.464" y="130.889" width="28.048" height="9.15"/>
			<rect x="13.924" y="266.453" width="271.127" height="9.15"/>
		</g>
	</g>
</g>
<g>
</g>
<g>
</g>
<g>
</g>
<g>
</g>
<g>
</g>
<g>
</g>
<g>
</g>
<g>
</g>
<g>
</g>
<g>
</g>
<g>
</g>
<g>
</g>
<g>
</g>
<g>
</g>
<g>
</g>
</svg>
